<svg id="logo" width="969" height="75" viewBox="0 0 969 75" fill="none" xmlns="http://www.w3.org/2000/svg">
        <mask id="path-1-outside-1" maskUnits="userSpaceOnUse" x="0.944" y="0.223999" width="968" height="75" fill="black">
                <rect fill="white" x="0.944" y="0.223999" width="968" height="75"/>
                <path d="M29.096 3.8C37.672 3.8 44.392 5.848 49.256 9.944C54.12 14.04 56.552 19.672 56.552 26.84C56.552 34.008 54.12 39.64 49.256 43.736C44.392 47.768 37.672 49.784 29.096 49.784H11.048V71H3.944V3.8H29.096ZM28.904 43.544C35.56 43.544 40.648 42.104 44.168 39.224C47.688 36.28 49.448 32.152 49.448 26.84C49.448 21.4 47.688 17.24 44.168 14.36C40.648 11.416 35.56 9.944 28.904 9.944H11.048V43.544H28.904Z"/>
                <path d="M110.682 53.048H73.2418L65.1777 71H57.7858L88.5058 3.8H95.5137L126.234 71H118.746L110.682 53.048ZM108.09 47.288L91.9618 11.192L75.8337 47.288H108.09Z"/>
                <path d="M147.031 9.944H123.415V3.8H177.751V9.944H154.135V71H147.031V9.944Z"/>
                <path d="M234.988 71L219.628 49.4C217.9 49.592 216.108 49.688 214.252 49.688H196.204V71H189.1V3.8H214.252C222.828 3.8 229.548 5.848 234.412 9.944C239.276 14.04 241.708 19.672 241.708 26.84C241.708 32.088 240.364 36.536 237.676 40.184C235.052 43.768 231.276 46.36 226.348 47.96L242.764 71H234.988ZM214.06 43.64C220.716 43.64 225.804 42.168 229.324 39.224C232.844 36.28 234.604 32.152 234.604 26.84C234.604 21.4 232.844 17.24 229.324 14.36C225.804 11.416 220.716 9.944 214.06 9.944H196.204V43.64H214.06Z"/>
                <path d="M258.475 3.8H265.579V71H258.475V3.8Z"/>
                <path d="M316.628 71.576C309.972 71.576 303.956 70.104 298.58 67.16C293.268 64.216 289.076 60.152 286.004 54.968C282.996 49.72 281.492 43.864 281.492 37.4C281.492 30.936 282.996 25.112 286.004 19.928C289.076 14.68 293.3 10.584 298.676 7.64C304.052 4.696 310.068 3.224 316.724 3.224C321.716 3.224 326.324 4.056 330.548 5.72C334.772 7.384 338.356 9.816 341.3 13.016L336.788 17.528C331.54 12.216 324.916 9.56 316.916 9.56C311.604 9.56 306.772 10.776 302.42 13.208C298.068 15.64 294.644 18.968 292.148 23.192C289.716 27.416 288.5 32.152 288.5 37.4C288.5 42.648 289.716 47.384 292.148 51.608C294.644 55.832 298.068 59.16 302.42 61.592C306.772 64.024 311.604 65.24 316.916 65.24C324.98 65.24 331.604 62.552 336.788 57.176L341.3 61.688C338.356 64.888 334.74 67.352 330.452 69.08C326.228 70.744 321.62 71.576 316.628 71.576Z"/>
                <path d="M356.444 3.8H363.548V71H356.444V3.8Z"/>
                <path d="M427.557 53.048H390.117L382.053 71H374.661L405.381 3.8H412.389L443.109 71H435.621L427.557 53.048ZM424.965 47.288L408.837 11.192L392.709 47.288H424.965Z"/>
                <path d="M500.113 71L484.753 49.4C483.025 49.592 481.233 49.688 479.377 49.688H461.329V71H454.225V3.8H479.377C487.953 3.8 494.673 5.848 499.537 9.944C504.401 14.04 506.833 19.672 506.833 26.84C506.833 32.088 505.489 36.536 502.801 40.184C500.177 43.768 496.401 46.36 491.473 47.96L507.889 71H500.113ZM479.185 43.64C485.841 43.64 490.929 42.168 494.449 39.224C497.969 36.28 499.729 32.152 499.729 26.84C499.729 21.4 497.969 17.24 494.449 14.36C490.929 11.416 485.841 9.944 479.185 9.944H461.329V43.64H479.185Z"/>
                <path d="M571.12 64.856V71H523.6V3.8H569.68V9.944H530.704V33.848H565.456V39.896H530.704V64.856H571.12Z"/>
                <path d="M587.819 3.8H594.923V71H587.819V3.8Z"/>
                <path d="M658.932 53.048H621.492L613.428 71H606.036L636.756 3.8H643.764L674.484 71H666.996L658.932 53.048ZM656.34 47.288L640.212 11.192L624.084 47.288H656.34Z"/>
                <path d="M704.128 71.576C699.136 71.576 694.336 70.776 689.728 69.176C685.184 67.576 681.664 65.464 679.168 62.84L681.952 57.368C684.384 59.8 687.616 61.784 691.648 63.32C695.68 64.792 699.84 65.528 704.128 65.528C710.144 65.528 714.656 64.44 717.664 62.264C720.672 60.024 722.176 57.144 722.176 53.624C722.176 50.936 721.344 48.792 719.68 47.192C718.08 45.592 716.096 44.376 713.728 43.544C711.36 42.648 708.064 41.688 703.84 40.664C698.784 39.384 694.752 38.168 691.744 37.016C688.736 35.8 686.144 33.976 683.968 31.544C681.856 29.112 680.8 25.816 680.8 21.656C680.8 18.264 681.696 15.192 683.488 12.44C685.28 9.624 688.032 7.384 691.744 5.72C695.456 4.056 700.064 3.224 705.568 3.224C709.408 3.224 713.152 3.768 716.8 4.856C720.512 5.88 723.712 7.32 726.4 9.176L724 14.84C721.184 12.984 718.176 11.608 714.976 10.712C711.776 9.752 708.64 9.272 705.568 9.272C699.68 9.272 695.232 10.424 692.224 12.728C689.28 14.968 687.808 17.88 687.808 21.464C687.808 24.152 688.608 26.328 690.208 27.992C691.872 29.592 693.92 30.84 696.352 31.736C698.848 32.568 702.176 33.496 706.336 34.52C711.264 35.736 715.232 36.952 718.24 38.168C721.312 39.32 723.904 41.112 726.016 43.544C728.128 45.912 729.184 49.144 729.184 53.24C729.184 56.632 728.256 59.736 726.4 62.552C724.608 65.304 721.824 67.512 718.048 69.176C714.272 70.776 709.632 71.576 704.128 71.576Z"/>
                <path d="M744.663 3.8H751.767V71H744.663V3.8Z"/>
                <path d="M773.632 3.8H780.736V64.856H818.367V71H773.632V3.8Z"/>
                <path d="M880.972 3.8L851.212 71H844.204L814.444 3.8H822.124L847.852 62.168L873.772 3.8H880.972Z"/>
                <path d="M930.807 53.048H893.367L885.303 71H877.911L908.631 3.8H915.639L946.359 71H938.871L930.807 53.048ZM928.215 47.288L912.087 11.192L895.959 47.288H928.215Z"/>
                <path d="M959.989 71.48C958.581 71.48 957.364 70.968 956.34 69.944C955.38 68.92 954.901 67.672 954.901 66.2C954.901 64.728 955.38 63.512 956.34 62.552C957.364 61.528 958.581 61.016 959.989 61.016C961.397 61.016 962.613 61.528 963.637 62.552C964.661 63.512 965.173 64.728 965.173 66.2C965.173 67.672 964.661 68.92 963.637 69.944C962.613 70.968 961.397 71.48 959.989 71.48Z"/>
        </mask>
        <path d="M29.096 3.8C37.672 3.8 44.392 5.848 49.256 9.944C54.12 14.04 56.552 19.672 56.552 26.84C56.552 34.008 54.12 39.64 49.256 43.736C44.392 47.768 37.672 49.784 29.096 49.784H11.048V71H3.944V3.8H29.096ZM28.904 43.544C35.56 43.544 40.648 42.104 44.168 39.224C47.688 36.28 49.448 32.152 49.448 26.84C49.448 21.4 47.688 17.24 44.168 14.36C40.648 11.416 35.56 9.944 28.904 9.944H11.048V43.544H28.904Z" stroke="black" stroke-width="6" mask="url(#path-1-outside-1)"/>
        <path d="M110.682 53.048H73.2418L65.1777 71H57.7858L88.5058 3.8H95.5137L126.234 71H118.746L110.682 53.048ZM108.09 47.288L91.9618 11.192L75.8337 47.288H108.09Z" stroke="black" stroke-width="6" mask="url(#path-1-outside-1)"/>
        <path d="M147.031 9.944H123.415V3.8H177.751V9.944H154.135V71H147.031V9.944Z" stroke="black" stroke-width="6" mask="url(#path-1-outside-1)"/>
        <path d="M234.988 71L219.628 49.4C217.9 49.592 216.108 49.688 214.252 49.688H196.204V71H189.1V3.8H214.252C222.828 3.8 229.548 5.848 234.412 9.944C239.276 14.04 241.708 19.672 241.708 26.84C241.708 32.088 240.364 36.536 237.676 40.184C235.052 43.768 231.276 46.36 226.348 47.96L242.764 71H234.988ZM214.06 43.64C220.716 43.64 225.804 42.168 229.324 39.224C232.844 36.28 234.604 32.152 234.604 26.84C234.604 21.4 232.844 17.24 229.324 14.36C225.804 11.416 220.716 9.944 214.06 9.944H196.204V43.64H214.06Z" stroke="black" stroke-width="6" mask="url(#path-1-outside-1)"/>
        <path d="M258.475 3.8H265.579V71H258.475V3.8Z" stroke="black" stroke-width="6" mask="url(#path-1-outside-1)"/>
        <path d="M316.628 71.576C309.972 71.576 303.956 70.104 298.58 67.16C293.268 64.216 289.076 60.152 286.004 54.968C282.996 49.72 281.492 43.864 281.492 37.4C281.492 30.936 282.996 25.112 286.004 19.928C289.076 14.68 293.3 10.584 298.676 7.64C304.052 4.696 310.068 3.224 316.724 3.224C321.716 3.224 326.324 4.056 330.548 5.72C334.772 7.384 338.356 9.816 341.3 13.016L336.788 17.528C331.54 12.216 324.916 9.56 316.916 9.56C311.604 9.56 306.772 10.776 302.42 13.208C298.068 15.64 294.644 18.968 292.148 23.192C289.716 27.416 288.5 32.152 288.5 37.4C288.5 42.648 289.716 47.384 292.148 51.608C294.644 55.832 298.068 59.16 302.42 61.592C306.772 64.024 311.604 65.24 316.916 65.24C324.98 65.24 331.604 62.552 336.788 57.176L341.3 61.688C338.356 64.888 334.74 67.352 330.452 69.08C326.228 70.744 321.62 71.576 316.628 71.576Z" stroke="black" stroke-width="6" mask="url(#path-1-outside-1)"/>
        <path d="M356.444 3.8H363.548V71H356.444V3.8Z" stroke="black" stroke-width="6" mask="url(#path-1-outside-1)"/>
        <path d="M427.557 53.048H390.117L382.053 71H374.661L405.381 3.8H412.389L443.109 71H435.621L427.557 53.048ZM424.965 47.288L408.837 11.192L392.709 47.288H424.965Z" stroke="black" stroke-width="6" mask="url(#path-1-outside-1)"/>
        <path d="M500.113 71L484.753 49.4C483.025 49.592 481.233 49.688 479.377 49.688H461.329V71H454.225V3.8H479.377C487.953 3.8 494.673 5.848 499.537 9.944C504.401 14.04 506.833 19.672 506.833 26.84C506.833 32.088 505.489 36.536 502.801 40.184C500.177 43.768 496.401 46.36 491.473 47.96L507.889 71H500.113ZM479.185 43.64C485.841 43.64 490.929 42.168 494.449 39.224C497.969 36.28 499.729 32.152 499.729 26.84C499.729 21.4 497.969 17.24 494.449 14.36C490.929 11.416 485.841 9.944 479.185 9.944H461.329V43.64H479.185Z" stroke="black" stroke-width="6" mask="url(#path-1-outside-1)"/>
        <path d="M571.12 64.856V71H523.6V3.8H569.68V9.944H530.704V33.848H565.456V39.896H530.704V64.856H571.12Z" stroke="black" stroke-width="6" mask="url(#path-1-outside-1)"/>
        <path d="M587.819 3.8H594.923V71H587.819V3.8Z" stroke="black" stroke-width="6" mask="url(#path-1-outside-1)"/>
        <path d="M658.932 53.048H621.492L613.428 71H606.036L636.756 3.8H643.764L674.484 71H666.996L658.932 53.048ZM656.34 47.288L640.212 11.192L624.084 47.288H656.34Z" stroke="black" stroke-width="6" mask="url(#path-1-outside-1)"/>
        <path d="M704.128 71.576C699.136 71.576 694.336 70.776 689.728 69.176C685.184 67.576 681.664 65.464 679.168 62.84L681.952 57.368C684.384 59.8 687.616 61.784 691.648 63.32C695.68 64.792 699.84 65.528 704.128 65.528C710.144 65.528 714.656 64.44 717.664 62.264C720.672 60.024 722.176 57.144 722.176 53.624C722.176 50.936 721.344 48.792 719.68 47.192C718.08 45.592 716.096 44.376 713.728 43.544C711.36 42.648 708.064 41.688 703.84 40.664C698.784 39.384 694.752 38.168 691.744 37.016C688.736 35.8 686.144 33.976 683.968 31.544C681.856 29.112 680.8 25.816 680.8 21.656C680.8 18.264 681.696 15.192 683.488 12.44C685.28 9.624 688.032 7.384 691.744 5.72C695.456 4.056 700.064 3.224 705.568 3.224C709.408 3.224 713.152 3.768 716.8 4.856C720.512 5.88 723.712 7.32 726.4 9.176L724 14.84C721.184 12.984 718.176 11.608 714.976 10.712C711.776 9.752 708.64 9.272 705.568 9.272C699.68 9.272 695.232 10.424 692.224 12.728C689.28 14.968 687.808 17.88 687.808 21.464C687.808 24.152 688.608 26.328 690.208 27.992C691.872 29.592 693.92 30.84 696.352 31.736C698.848 32.568 702.176 33.496 706.336 34.52C711.264 35.736 715.232 36.952 718.24 38.168C721.312 39.32 723.904 41.112 726.016 43.544C728.128 45.912 729.184 49.144 729.184 53.24C729.184 56.632 728.256 59.736 726.4 62.552C724.608 65.304 721.824 67.512 718.048 69.176C714.272 70.776 709.632 71.576 704.128 71.576Z" stroke="black" stroke-width="6" mask="url(#path-1-outside-1)"/>
        <path d="M744.663 3.8H751.767V71H744.663V3.8Z" stroke="black" stroke-width="6" mask="url(#path-1-outside-1)"/>
        <path d="M773.632 3.8H780.736V64.856H818.367V71H773.632V3.8Z" stroke="black" stroke-width="6" mask="url(#path-1-outside-1)"/>
        <path d="M880.972 3.8L851.212 71H844.204L814.444 3.8H822.124L847.852 62.168L873.772 3.8H880.972Z" stroke="black" stroke-width="6" mask="url(#path-1-outside-1)"/>
        <path d="M930.807 53.048H893.367L885.303 71H877.911L908.631 3.8H915.639L946.359 71H938.871L930.807 53.048ZM928.215 47.288L912.087 11.192L895.959 47.288H928.215Z" stroke="black" stroke-width="6" mask="url(#path-1-outside-1)"/>
        <path d="M959.989 71.48C958.581 71.48 957.364 70.968 956.34 69.944C955.38 68.92 954.901 67.672 954.901 66.2C954.901 64.728 955.38 63.512 956.34 62.552C957.364 61.528 958.581 61.016 959.989 61.016C961.397 61.016 962.613 61.528 963.637 62.552C964.661 63.512 965.173 64.728 965.173 66.2C965.173 67.672 964.661 68.92 963.637 69.944C962.613 70.968 961.397 71.48 959.989 71.48Z" stroke="black" stroke-width="6" mask="url(#path-1-outside-1)"/>
</svg>
